<?xml version="1.0" encoding="UTF-8"?>
<svg xmlns="http://www.w3.org/2000/svg" width="512" height="512" viewBox="0 0 1111 1111" role="img" aria-label="Gust">
  <title>Gust</title>
  <defs>
    <linearGradient id="bg" x1="0" y1="0" x2="1" y2="1">
      <stop offset="0" stop-color="#18191c"/>
      <stop offset=".48" stop-color="#07080a"/>
      <stop offset="1" stop-color="#15161a"/>
    </linearGradient>
    <linearGradient id="edge" x1="0" y1="0" x2="1" y2="1">
      <stop offset="0" stop-color="#f5f5f5"/>
      <stop offset=".2" stop-color="#73757b"/>
      <stop offset=".5" stop-color="#ffffff"/>
      <stop offset=".78" stop-color="#55575d"/>
      <stop offset="1" stop-color="#d9d9db"/>
    </linearGradient>
    <linearGradient id="metal" x1="0" y1="0" x2="1" y2="1">
      <stop offset="0" stop-color="#ffffff"/>
      <stop offset=".22" stop-color="#74767b"/>
      <stop offset=".45" stop-color="#f4f4f5"/>
      <stop offset=".7" stop-color="#8a8c91"/>
      <stop offset="1" stop-color="#ffffff"/>
    </linearGradient>
    <clipPath id="g-crop">
      <rect x="126" y="38" width="858" height="1035" rx="132"/>
    </clipPath>
    <style>path{fill:url(#metal)}</style>
  </defs>
  <rect x="18" y="18" width="1075" height="1075" rx="224" fill="url(#bg)" stroke="url(#edge)" stroke-width="26"/>
  <g clip-path="url(#g-crop)" transform="translate(170 48) scale(.91)">
  <path d="M 822 419 L 816 419 L 815 420 L 805 420 L 804 421 L 792 421 L 791 420 L 783 420 L 782 419 L 778 419 L 777 418 L 774 418 L 773 417 L 771 417 L 770 416 L 768 416 L 767 415 L 765 415 L 764 414 L 763 414 L 762 413 L 761 413 L 760 412 L 758 412 L 757 411 L 756 411 L 755 410 L 754 410 L 753 409 L 751 409 L 750 408 L 749 408 L 748 407 L 746 407 L 745 406 L 744 406 L 743 405 L 741 405 L 740 404 L 738 404 L 737 403 L 735 403 L 734 402 L 729 402 L 728 401 L 716 401 L 715 402 L 709 402 L 708 403 L 704 403 L 703 404 L 700 404 L 699 405 L 697 405 L 696 406 L 694 406 L 693 407 L 692 407 L 691 408 L 690 408 L 689 409 L 687 409 L 686 410 L 685 410 L 683 412 L 683 413 L 681 415 L 681 416 L 679 418 L 679 419 L 677 421 L 677 422 L 675 424 L 675 425 L 673 427 L 673 428 L 671 430 L 671 431 L 669 433 L 669 434 L 666 437 L 666 438 L 663 441 L 663 442 L 661 444 L 661 445 L 658 448 L 658 449 L 654 453 L 654 454 L 652 456 L 652 457 L 649 460 L 649 461 L 645 465 L 645 466 L 641 470 L 641 471 L 636 476 L 636 477 L 631 482 L 631 483 L 626 488 L 626 489 L 621 494 L 621 495 L 622 495 L 624 493 L 625 493 L 628 490 L 629 490 L 632 487 L 633 487 L 635 485 L 636 485 L 638 483 L 639 483 L 640 482 L 641 482 L 642 481 L 643 481 L 645 479 L 646 479 L 647 478 L 648 478 L 649 477 L 650 477 L 651 476 L 652 476 L 653 475 L 655 475 L 656 474 L 658 474 L 659 473 L 661 473 L 662 472 L 664 472 L 665 471 L 674 471 L 675 470 L 690 470 L 691 471 L 696 471 L 697 472 L 701 472 L 702 473 L 705 473 L 706 474 L 708 474 L 709 475 L 711 475 L 712 476 L 715 476 L 716 477 L 717 477 L 718 478 L 721 478 L 722 479 L 723 479 L 724 480 L 727 480 L 728 481 L 729 481 L 730 482 L 733 482 L 734 483 L 737 483 L 738 484 L 742 484 L 743 485 L 760 485 L 761 486 L 758 489 L 758 490 L 753 495 L 753 496 L 746 503 L 746 504 L 740 510 L 740 511 L 735 516 L 735 517 L 731 521 L 731 522 L 726 527 L 726 528 L 722 532 L 722 533 L 719 536 L 719 537 L 717 539 L 717 540 L 715 542 L 715 543 L 713 545 L 713 546 L 712 547 L 712 548 L 711 549 L 711 550 L 712 551 L 712 567 L 713 568 L 713 596 L 714 597 L 714 641 L 713 642 L 713 683 L 712 684 L 712 712 L 711 713 L 711 730 L 710 731 L 710 746 L 709 747 L 709 761 L 708 762 L 708 776 L 707 777 L 707 789 L 706 790 L 706 800 L 705 801 L 705 808 L 704 809 L 704 816 L 703 817 L 703 822 L 702 823 L 702 826 L 701 827 L 701 828 L 700 829 L 700 830 L 697 833 L 697 834 L 696 835 L 695 835 L 694 834 L 693 834 L 692 833 L 691 833 L 690 832 L 689 832 L 687 830 L 686 830 L 685 829 L 684 829 L 683 828 L 682 828 L 680 826 L 679 826 L 678 825 L 677 825 L 676 824 L 675 824 L 674 823 L 673 823 L 672 822 L 671 822 L 670 821 L 668 821 L 667 820 L 666 820 L 665 819 L 664 819 L 663 818 L 662 818 L 661 817 L 660 817 L 659 816 L 658 816 L 657 815 L 656 815 L 655 814 L 654 814 L 653 813 L 652 813 L 651 812 L 650 812 L 649 811 L 648 811 L 647 810 L 646 810 L 645 809 L 643 809 L 642 808 L 641 808 L 640 807 L 639 807 L 638 806 L 636 806 L 635 805 L 634 805 L 633 804 L 632 804 L 631 803 L 630 803 L 629 802 L 628 802 L 627 801 L 626 801 L 625 800 L 623 800 L 622 799 L 621 799 L 620 798 L 618 798 L 617 797 L 616 797 L 615 796 L 614 796 L 613 795 L 611 795 L 610 794 L 609 794 L 608 793 L 606 793 L 605 792 L 604 792 L 603 791 L 601 791 L 600 790 L 599 790 L 598 789 L 596 789 L 595 788 L 593 788 L 592 787 L 591 787 L 590 786 L 588 786 L 587 785 L 586 785 L 585 784 L 583 784 L 582 783 L 581 783 L 580 782 L 578 782 L 577 781 L 575 781 L 574 780 L 573 780 L 572 779 L 570 779 L 569 778 L 568 778 L 567 777 L 565 777 L 564 776 L 563 776 L 562 775 L 559 775 L 558 774 L 556 774 L 555 773 L 554 773 L 553 772 L 551 772 L 550 771 L 547 771 L 546 770 L 544 770 L 543 769 L 541 769 L 540 768 L 538 768 L 537 767 L 535 767 L 534 766 L 532 766 L 531 765 L 529 765 L 528 764 L 526 764 L 525 763 L 522 763 L 521 762 L 519 762 L 518 761 L 516 761 L 515 760 L 512 760 L 511 759 L 508 759 L 507 758 L 505 758 L 504 757 L 501 757 L 500 756 L 497 756 L 496 755 L 493 755 L 492 754 L 489 754 L 488 753 L 485 753 L 484 752 L 480 752 L 479 751 L 475 751 L 474 750 L 470 750 L 469 749 L 464 749 L 463 748 L 458 748 L 457 747 L 452 747 L 451 746 L 446 746 L 445 745 L 438 745 L 437 744 L 430 744 L 429 743 L 418 743 L 417 742 L 402 742 L 401 741 L 379 741 L 378 742 L 366 742 L 365 743 L 358 743 L 357 744 L 351 744 L 350 745 L 345 745 L 344 746 L 341 746 L 340 747 L 337 747 L 336 748 L 333 748 L 332 749 L 330 749 L 329 750 L 326 750 L 325 751 L 323 751 L 322 752 L 320 752 L 319 753 L 318 753 L 317 754 L 316 754 L 315 755 L 313 755 L 312 756 L 311 756 L 310 757 L 308 757 L 307 758 L 306 758 L 305 759 L 304 759 L 303 760 L 302 760 L 301 761 L 300 761 L 298 763 L 297 763 L 295 765 L 294 765 L 292 767 L 291 767 L 285 773 L 285 774 L 284 775 L 284 777 L 283 778 L 283 779 L 282 780 L 282 781 L 281 782 L 281 783 L 279 785 L 279 786 L 276 789 L 276 790 L 273 793 L 273 794 L 268 799 L 268 800 L 258 810 L 258 811 L 250 819 L 250 820 L 242 828 L 242 829 L 237 834 L 237 835 L 233 839 L 233 840 L 229 844 L 229 845 L 227 847 L 227 848 L 225 850 L 225 851 L 223 853 L 223 854 L 222 855 L 222 856 L 220 858 L 220 859 L 219 860 L 219 861 L 218 862 L 218 863 L 216 865 L 216 866 L 215 867 L 215 868 L 214 869 L 214 870 L 213 871 L 213 872 L 212 873 L 212 874 L 211 875 L 211 876 L 210 877 L 210 878 L 209 879 L 209 881 L 208 882 L 208 883 L 207 884 L 207 886 L 206 887 L 206 889 L 205 890 L 205 892 L 204 893 L 204 896 L 203 897 L 203 899 L 202 900 L 202 904 L 201 905 L 201 910 L 200 911 L 200 935 L 201 936 L 201 942 L 202 943 L 202 947 L 203 948 L 203 950 L 204 951 L 204 954 L 205 955 L 205 956 L 206 957 L 206 959 L 207 960 L 207 962 L 208 963 L 208 964 L 209 965 L 209 966 L 210 967 L 210 968 L 211 969 L 211 970 L 212 971 L 212 972 L 213 973 L 213 974 L 214 975 L 214 976 L 216 978 L 216 979 L 218 981 L 218 982 L 220 984 L 220 985 L 222 987 L 222 988 L 225 991 L 225 992 L 229 996 L 229 997 L 244 1012 L 245 1012 L 250 1017 L 251 1017 L 255 1021 L 256 1021 L 259 1024 L 260 1024 L 262 1026 L 263 1026 L 265 1028 L 266 1028 L 268 1030 L 269 1030 L 271 1032 L 272 1032 L 273 1033 L 274 1033 L 276 1035 L 277 1035 L 279 1037 L 280 1037 L 281 1038 L 282 1038 L 283 1039 L 284 1039 L 285 1040 L 286 1040 L 288 1042 L 289 1042 L 290 1043 L 291 1043 L 292 1044 L 293 1044 L 294 1045 L 295 1045 L 296 1046 L 297 1046 L 298 1047 L 299 1047 L 300 1048 L 301 1048 L 302 1049 L 303 1049 L 304 1050 L 305 1050 L 306 1051 L 307 1051 L 308 1052 L 309 1052 L 310 1053 L 311 1053 L 312 1054 L 313 1054 L 314 1055 L 315 1055 L 316 1056 L 318 1056 L 319 1057 L 320 1057 L 321 1058 L 322 1058 L 323 1059 L 325 1059 L 326 1060 L 327 1060 L 328 1061 L 330 1061 L 331 1062 L 332 1062 L 333 1063 L 335 1063 L 336 1064 L 337 1064 L 338 1065 L 340 1065 L 341 1066 L 342 1066 L 343 1067 L 345 1067 L 346 1068 L 347 1068 L 348 1069 L 349 1069 L 350 1070 L 352 1070 L 353 1071 L 355 1071 L 356 1072 L 357 1072 L 358 1073 L 360 1073 L 361 1074 L 363 1074 L 364 1075 L 365 1075 L 366 1076 L 368 1076 L 369 1077 L 371 1077 L 372 1078 L 374 1078 L 375 1079 L 376 1079 L 377 1080 L 379 1080 L 380 1081 L 382 1081 L 383 1082 L 385 1082 L 386 1083 L 387 1083 L 388 1084 L 390 1084 L 391 1085 L 393 1085 L 394 1086 L 396 1086 L 397 1087 L 399 1087 L 400 1088 L 401 1088 L 402 1089 L 404 1089 L 405 1090 L 407 1090 L 408 1091 L 410 1091 L 411 1092 L 413 1092 L 414 1093 L 416 1093 L 417 1094 L 419 1094 L 420 1095 L 422 1095 L 423 1096 L 425 1096 L 426 1097 L 428 1097 L 429 1098 L 431 1098 L 432 1099 L 434 1099 L 435 1100 L 436 1100 L 437 1101 L 439 1101 L 440 1102 L 442 1102 L 443 1103 L 444 1103 L 445 1104 L 447 1104 L 448 1105 L 449 1105 L 450 1106 L 452 1106 L 453 1107 L 454 1107 L 455 1108 L 456 1108 L 457 1109 L 459 1109 L 460 1110 L 465 1110 L 470 1105 L 470 1104 L 472 1102 L 472 1101 L 473 1100 L 473 1099 L 475 1097 L 475 1096 L 478 1093 L 478 1092 L 481 1089 L 481 1088 L 485 1084 L 485 1083 L 504 1064 L 505 1064 L 518 1051 L 518 1050 L 525 1043 L 525 1042 L 529 1038 L 529 1037 L 532 1034 L 532 1033 L 534 1031 L 534 1030 L 537 1027 L 537 1026 L 539 1024 L 539 1023 L 541 1021 L 541 1020 L 543 1018 L 543 1017 L 544 1016 L 544 1015 L 545 1014 L 545 1013 L 547 1011 L 547 1010 L 548 1009 L 548 1008 L 549 1007 L 549 1006 L 550 1005 L 550 1004 L 551 1003 L 551 1002 L 552 1001 L 552 1000 L 553 999 L 553 998 L 554 997 L 554 996 L 555 995 L 555 994 L 556 993 L 556 992 L 557 991 L 557 989 L 558 988 L 558 987 L 559 986 L 559 985 L 560 984 L 560 983 L 561 982 L 561 980 L 562 979 L 562 978 L 563 977 L 563 975 L 564 974 L 564 972 L 565 971 L 565 969 L 566 968 L 566 967 L 567 966 L 567 963 L 568 962 L 568 960 L 569 959 L 569 957 L 570 956 L 570 953 L 571 952 L 571 949 L 572 948 L 572 944 L 573 943 L 573 938 L 574 937 L 574 929 L 575 928 L 575 917 L 574 916 L 574 909 L 573 908 L 573 905 L 572 904 L 572 902 L 571 902 L 571 903 L 570 904 L 570 905 L 569 906 L 569 907 L 567 909 L 567 910 L 566 911 L 566 912 L 565 913 L 565 914 L 564 915 L 564 916 L 563 917 L 563 918 L 561 920 L 561 921 L 560 922 L 560 923 L 558 925 L 558 926 L 556 928 L 556 929 L 552 933 L 552 934 L 536 950 L 535 950 L 531 954 L 530 954 L 527 957 L 526 957 L 523 960 L 522 960 L 520 962 L 519 962 L 517 964 L 516 964 L 514 966 L 513 966 L 511 968 L 510 968 L 509 969 L 508 969 L 506 971 L 505 971 L 504 972 L 503 972 L 502 973 L 501 973 L 500 974 L 499 974 L 498 975 L 497 975 L 496 976 L 495 976 L 494 977 L 493 977 L 492 978 L 491 978 L 490 979 L 488 979 L 487 980 L 486 980 L 485 981 L 483 981 L 482 982 L 481 982 L 480 983 L 478 983 L 477 984 L 475 984 L 474 985 L 471 985 L 470 986 L 468 986 L 467 987 L 464 987 L 463 988 L 460 988 L 459 989 L 455 989 L 454 990 L 448 990 L 447 991 L 405 991 L 404 990 L 397 990 L 396 989 L 390 989 L 389 988 L 384 988 L 383 987 L 379 987 L 378 986 L 374 986 L 373 985 L 370 985 L 369 984 L 367 984 L 366 983 L 363 983 L 362 982 L 360 982 L 359 981 L 357 981 L 356 980 L 354 980 L 353 979 L 351 979 L 350 978 L 349 978 L 348 977 L 346 977 L 345 976 L 343 976 L 342 975 L 341 975 L 340 974 L 339 974 L 338 973 L 336 973 L 335 972 L 334 972 L 333 971 L 332 971 L 331 970 L 329 970 L 328 969 L 327 969 L 326 968 L 325 968 L 324 967 L 323 967 L 322 966 L 321 966 L 320 965 L 319 965 L 317 963 L 316 963 L 315 962 L 314 962 L 313 961 L 312 961 L 310 959 L 309 959 L 307 957 L 306 957 L 304 955 L 303 955 L 300 952 L 299 952 L 293 946 L 292 946 L 290 944 L 290 943 L 289 943 L 288 942 L 288 941 L 287 941 L 278 932 L 277 932 L 263 918 L 263 917 L 259 913 L 259 912 L 258 911 L 258 910 L 257 909 L 257 908 L 256 907 L 256 906 L 254 904 L 254 903 L 253 902 L 253 901 L 252 900 L 252 899 L 251 898 L 251 896 L 250 895 L 250 894 L 249 893 L 249 891 L 248 890 L 248 888 L 247 887 L 247 884 L 246 883 L 246 880 L 245 879 L 245 859 L 246 858 L 246 853 L 247 852 L 247 849 L 248 848 L 248 846 L 249 845 L 249 844 L 250 843 L 250 842 L 251 841 L 251 840 L 252 839 L 252 838 L 253 837 L 253 836 L 254 835 L 254 834 L 256 832 L 256 831 L 258 829 L 258 828 L 265 821 L 266 821 L 268 819 L 269 819 L 270 818 L 271 818 L 272 817 L 273 817 L 274 816 L 275 816 L 276 815 L 278 815 L 279 814 L 282 814 L 283 813 L 286 813 L 287 812 L 291 812 L 292 811 L 297 811 L 298 810 L 306 810 L 307 809 L 348 809 L 349 810 L 362 810 L 363 811 L 372 811 L 373 812 L 382 812 L 383 813 L 389 813 L 390 814 L 397 814 L 398 815 L 403 815 L 404 816 L 409 816 L 410 817 L 415 817 L 416 818 L 420 818 L 421 819 L 426 819 L 427 820 L 431 820 L 432 821 L 436 821 L 437 822 L 440 822 L 441 823 L 445 823 L 446 824 L 449 824 L 450 825 L 454 825 L 455 826 L 458 826 L 459 827 L 461 827 L 462 828 L 465 828 L 466 829 L 469 829 L 470 830 L 473 830 L 474 831 L 476 831 L 477 832 L 480 832 L 481 833 L 484 833 L 485 834 L 487 834 L 488 835 L 490 835 L 491 836 L 494 836 L 495 837 L 497 837 L 498 838 L 501 838 L 502 839 L 504 839 L 505 840 L 507 840 L 508 841 L 510 841 L 511 842 L 513 842 L 514 843 L 516 843 L 517 844 L 518 844 L 519 845 L 521 845 L 522 846 L 523 846 L 524 847 L 526 847 L 527 848 L 529 848 L 530 849 L 532 849 L 533 850 L 534 850 L 535 851 L 536 851 L 537 852 L 539 852 L 540 853 L 542 853 L 543 854 L 544 854 L 545 855 L 546 855 L 547 856 L 549 856 L 550 857 L 551 857 L 552 858 L 553 858 L 554 859 L 555 859 L 556 860 L 557 860 L 558 861 L 560 861 L 561 862 L 562 862 L 563 863 L 564 863 L 565 864 L 566 864 L 567 865 L 568 865 L 570 867 L 571 867 L 572 868 L 573 868 L 574 869 L 575 869 L 576 870 L 577 870 L 578 871 L 579 871 L 581 873 L 582 873 L 584 875 L 585 875 L 586 876 L 587 876 L 589 878 L 590 878 L 592 880 L 593 880 L 595 882 L 596 882 L 599 885 L 600 885 L 603 888 L 604 888 L 621 905 L 621 906 L 623 908 L 623 909 L 625 911 L 625 912 L 626 913 L 626 914 L 627 915 L 627 916 L 628 917 L 628 918 L 629 919 L 629 921 L 630 922 L 630 923 L 631 924 L 631 927 L 632 928 L 632 932 L 633 932 L 635 930 L 635 929 L 639 925 L 639 924 L 641 922 L 641 921 L 643 919 L 643 918 L 644 917 L 644 916 L 645 915 L 645 914 L 647 912 L 647 911 L 650 908 L 650 907 L 653 904 L 653 903 L 658 898 L 658 897 L 661 894 L 661 893 L 665 889 L 665 888 L 671 882 L 671 881 L 676 876 L 676 875 L 682 869 L 682 868 L 690 860 L 690 859 L 700 849 L 700 848 L 764 784 L 764 783 L 768 779 L 768 778 L 771 775 L 771 774 L 773 772 L 773 771 L 774 770 L 774 769 L 776 767 L 776 766 L 777 765 L 777 764 L 778 763 L 778 762 L 779 761 L 779 760 L 780 759 L 780 758 L 781 757 L 781 756 L 782 755 L 782 753 L 783 752 L 783 751 L 784 750 L 784 747 L 785 746 L 785 744 L 786 743 L 786 740 L 787 739 L 787 735 L 788 734 L 788 729 L 789 728 L 789 721 L 790 720 L 790 714 L 791 713 L 791 706 L 792 705 L 792 697 L 793 696 L 793 686 L 794 685 L 794 676 L 795 675 L 795 663 L 796 662 L 796 641 L 797 640 L 797 593 L 798 592 L 798 558 L 797 557 L 797 526 L 796 525 L 796 492 L 795 491 L 795 482 L 794 481 L 794 474 L 793 473 L 793 470 L 792 469 L 792 467 L 791 466 L 791 464 L 790 463 L 790 462 L 791 461 L 791 460 L 792 459 L 792 457 L 793 456 L 793 455 L 795 453 L 795 452 L 797 450 L 797 449 L 800 446 L 800 445 L 803 442 L 803 441 L 805 439 L 805 438 L 809 434 L 809 433 L 822 420 Z M 1045 377 L 1044 377 L 1043 378 L 1042 378 L 1041 379 L 1040 379 L 1039 380 L 1038 380 L 1037 381 L 1036 381 L 1035 382 L 1034 382 L 1033 383 L 1032 383 L 1030 385 L 1029 385 L 1028 386 L 1027 386 L 1026 387 L 1025 387 L 1024 388 L 1023 388 L 1022 389 L 1021 389 L 1020 390 L 1019 390 L 1017 392 L 1016 392 L 1015 393 L 1014 393 L 1013 394 L 1012 394 L 1011 395 L 1010 395 L 1008 397 L 1007 397 L 1006 398 L 1005 398 L 1004 399 L 1003 399 L 1001 401 L 1000 401 L 999 402 L 998 402 L 997 403 L 996 403 L 995 404 L 994 404 L 993 405 L 992 405 L 991 406 L 990 406 L 989 407 L 988 407 L 987 408 L 986 408 L 985 409 L 984 409 L 983 410 L 982 410 L 981 411 L 980 411 L 979 412 L 978 412 L 977 413 L 976 413 L 975 414 L 974 414 L 973 415 L 972 415 L 971 416 L 970 416 L 969 417 L 968 417 L 968 421 L 969 422 L 969 426 L 970 427 L 970 435 L 971 436 L 971 518 L 970 519 L 970 532 L 969 533 L 969 542 L 968 543 L 968 549 L 967 550 L 967 555 L 966 556 L 966 559 L 965 560 L 965 563 L 964 564 L 964 567 L 963 568 L 963 571 L 962 572 L 962 574 L 961 575 L 961 578 L 960 579 L 960 581 L 959 582 L 959 585 L 958 586 L 958 588 L 957 589 L 957 591 L 956 592 L 956 594 L 955 595 L 955 597 L 954 598 L 954 601 L 953 602 L 953 605 L 952 606 L 952 608 L 951 609 L 951 611 L 950 612 L 950 614 L 949 615 L 947 613 L 947 611 L 946 610 L 946 608 L 945 607 L 945 606 L 944 605 L 944 603 L 943 602 L 943 601 L 941 599 L 941 598 L 936 593 L 935 593 L 932 590 L 931 590 L 929 588 L 928 588 L 927 587 L 926 587 L 925 586 L 923 586 L 922 585 L 920 585 L 919 584 L 913 584 L 912 583 L 897 583 L 896 582 L 898 580 L 899 580 L 901 578 L 902 578 L 904 576 L 905 576 L 907 574 L 908 574 L 911 571 L 912 571 L 914 569 L 915 569 L 917 567 L 918 567 L 921 564 L 922 564 L 924 562 L 925 562 L 927 560 L 928 560 L 932 556 L 933 556 L 936 553 L 937 553 L 938 552 L 938 481 L 937 480 L 937 447 L 936 446 L 936 426 L 935 425 L 935 423 L 934 422 L 934 420 L 933 419 L 933 418 L 932 417 L 932 416 L 931 415 L 931 414 L 930 413 L 930 412 L 928 410 L 928 409 L 926 407 L 926 406 L 919 399 L 918 399 L 916 397 L 915 397 L 914 396 L 913 396 L 912 395 L 910 395 L 909 394 L 907 394 L 906 393 L 905 393 L 904 394 L 903 394 L 901 396 L 900 396 L 898 398 L 897 398 L 894 401 L 893 401 L 891 403 L 890 403 L 887 406 L 886 406 L 884 408 L 883 408 L 881 410 L 879 410 L 878 411 L 877 411 L 876 412 L 875 412 L 874 413 L 872 413 L 871 414 L 870 414 L 869 415 L 868 415 L 866 417 L 865 417 L 864 418 L 863 418 L 862 419 L 861 419 L 860 420 L 859 420 L 858 421 L 857 421 L 856 422 L 855 422 L 853 424 L 852 424 L 849 427 L 848 427 L 838 437 L 838 438 L 848 438 L 849 439 L 852 439 L 854 441 L 855 441 L 856 442 L 856 443 L 858 445 L 858 446 L 859 447 L 859 449 L 860 450 L 860 453 L 861 454 L 861 457 L 862 458 L 862 462 L 863 463 L 863 468 L 864 469 L 864 474 L 865 475 L 865 481 L 866 482 L 866 490 L 867 491 L 867 503 L 868 504 L 868 540 L 867 541 L 867 586 L 847 606 L 846 606 L 829 623 L 829 626 L 830 627 L 830 628 L 831 628 L 832 629 L 840 629 L 841 630 L 848 630 L 849 631 L 853 631 L 854 632 L 856 632 L 857 633 L 860 633 L 861 634 L 862 634 L 863 635 L 864 635 L 865 636 L 866 636 L 867 637 L 868 637 L 870 639 L 871 639 L 875 643 L 876 643 L 879 646 L 879 647 L 884 652 L 884 653 L 887 656 L 887 657 L 889 659 L 889 660 L 891 662 L 891 663 L 893 665 L 893 666 L 895 668 L 895 669 L 896 670 L 896 671 L 898 673 L 898 674 L 899 675 L 899 676 L 900 677 L 900 678 L 901 679 L 901 680 L 902 681 L 902 682 L 903 683 L 903 685 L 904 686 L 904 687 L 905 688 L 905 689 L 906 690 L 906 691 L 907 692 L 907 693 L 908 694 L 908 696 L 909 697 L 909 698 L 910 699 L 910 701 L 911 702 L 911 703 L 912 704 L 912 706 L 913 707 L 913 708 L 914 708 L 916 706 L 916 705 L 917 704 L 917 703 L 918 702 L 918 701 L 919 700 L 919 699 L 920 698 L 920 697 L 921 696 L 921 695 L 923 693 L 923 692 L 924 691 L 924 690 L 925 689 L 925 688 L 926 687 L 926 686 L 927 685 L 927 684 L 928 683 L 928 682 L 929 681 L 929 680 L 930 679 L 930 678 L 931 677 L 931 676 L 932 675 L 932 674 L 933 673 L 933 672 L 935 670 L 935 669 L 936 668 L 936 667 L 939 664 L 939 663 L 943 659 L 943 658 L 947 654 L 947 653 L 949 651 L 949 650 L 950 649 L 950 647 L 951 646 L 951 644 L 952 643 L 952 641 L 953 640 L 953 638 L 954 637 L 954 635 L 955 634 L 955 632 L 956 631 L 956 629 L 957 628 L 957 626 L 958 625 L 958 623 L 959 622 L 959 620 L 960 619 L 960 616 L 961 615 L 961 612 L 962 611 L 962 608 L 963 607 L 963 603 L 964 602 L 964 598 L 965 597 L 965 593 L 966 592 L 966 587 L 967 586 L 967 582 L 968 581 L 968 576 L 970 574 L 971 575 L 971 586 L 970 587 L 970 625 L 971 626 L 971 636 L 972 637 L 972 642 L 973 643 L 973 648 L 974 649 L 974 652 L 975 653 L 975 656 L 976 657 L 976 659 L 977 660 L 977 661 L 978 662 L 978 663 L 979 664 L 979 666 L 981 668 L 981 669 L 982 670 L 982 671 L 984 673 L 984 674 L 986 676 L 986 677 L 988 679 L 988 680 L 993 685 L 993 686 L 998 691 L 999 691 L 1003 695 L 1004 695 L 1007 698 L 1008 698 L 1009 699 L 1010 699 L 1012 701 L 1014 701 L 1015 702 L 1024 702 L 1026 700 L 1027 700 L 1028 699 L 1028 698 L 1030 696 L 1030 695 L 1032 693 L 1032 692 L 1036 688 L 1036 687 L 1045 678 L 1045 677 L 1051 671 L 1051 670 L 1070 651 L 1070 650 L 1069 649 L 1068 649 L 1067 648 L 1065 648 L 1064 647 L 1063 647 L 1062 646 L 1061 646 L 1059 644 L 1058 644 L 1049 635 L 1049 634 L 1048 633 L 1048 632 L 1047 631 L 1047 630 L 1046 629 L 1046 628 L 1045 627 L 1045 626 L 1044 625 L 1044 623 L 1043 622 L 1043 619 L 1042 618 L 1042 613 L 1041 612 L 1041 600 L 1040 599 L 1040 581 L 1041 580 L 1041 531 L 1042 530 L 1042 491 L 1043 490 L 1043 444 L 1044 443 L 1044 409 L 1045 408 Z M 1162 373 L 1160 373 L 1158 375 L 1158 376 L 1155 379 L 1155 380 L 1152 383 L 1152 384 L 1149 387 L 1149 388 L 1145 392 L 1145 393 L 1142 396 L 1142 397 L 1139 400 L 1139 401 L 1136 404 L 1135 404 L 1134 405 L 1132 405 L 1131 406 L 1130 406 L 1129 407 L 1128 407 L 1127 408 L 1126 408 L 1124 410 L 1123 410 L 1122 411 L 1121 411 L 1120 412 L 1119 412 L 1117 414 L 1116 414 L 1115 415 L 1114 415 L 1113 416 L 1112 416 L 1111 417 L 1110 417 L 1108 419 L 1107 419 L 1106 420 L 1105 420 L 1103 422 L 1102 422 L 1101 423 L 1100 423 L 1099 424 L 1098 424 L 1096 426 L 1095 426 L 1093 428 L 1092 428 L 1091 429 L 1090 429 L 1089 430 L 1088 430 L 1087 431 L 1086 431 L 1085 432 L 1083 432 L 1082 433 L 1081 433 L 1080 434 L 1079 434 L 1078 435 L 1076 435 L 1075 436 L 1074 436 L 1073 437 L 1073 442 L 1074 443 L 1074 447 L 1075 448 L 1075 455 L 1076 456 L 1076 478 L 1077 479 L 1077 490 L 1076 491 L 1076 507 L 1075 508 L 1075 518 L 1074 519 L 1074 523 L 1073 524 L 1073 526 L 1072 527 L 1072 529 L 1071 530 L 1071 532 L 1070 533 L 1070 534 L 1069 535 L 1069 537 L 1067 539 L 1067 541 L 1066 542 L 1066 544 L 1065 545 L 1065 549 L 1072 549 L 1073 548 L 1076 548 L 1077 547 L 1079 547 L 1080 546 L 1081 546 L 1082 545 L 1083 545 L 1084 544 L 1085 544 L 1086 543 L 1088 543 L 1089 542 L 1090 542 L 1091 541 L 1092 541 L 1093 540 L 1094 540 L 1095 539 L 1096 539 L 1097 538 L 1098 538 L 1099 537 L 1100 537 L 1101 536 L 1102 536 L 1103 535 L 1104 535 L 1105 534 L 1106 534 L 1107 533 L 1108 533 L 1109 532 L 1110 532 L 1111 531 L 1112 531 L 1113 530 L 1115 530 L 1116 529 L 1118 529 L 1119 528 L 1120 528 L 1121 527 L 1123 527 L 1124 526 L 1126 526 L 1127 525 L 1129 525 L 1130 524 L 1132 524 L 1133 523 L 1135 523 L 1136 522 L 1138 522 L 1139 521 L 1141 521 L 1142 520 L 1143 520 L 1144 519 L 1146 519 L 1147 518 L 1149 518 L 1150 517 L 1151 517 L 1152 516 L 1154 516 L 1155 515 L 1157 515 L 1158 514 L 1159 514 L 1160 513 L 1162 513 L 1163 512 L 1167 512 L 1173 518 L 1173 520 L 1174 521 L 1174 622 L 1175 623 L 1174 624 L 1173 624 L 1172 623 L 1172 621 L 1171 620 L 1171 618 L 1170 617 L 1170 615 L 1169 614 L 1169 612 L 1168 611 L 1168 609 L 1167 608 L 1167 607 L 1166 606 L 1166 604 L 1165 603 L 1165 601 L 1164 600 L 1164 599 L 1163 598 L 1163 596 L 1162 595 L 1162 594 L 1161 593 L 1161 592 L 1160 591 L 1160 589 L 1159 588 L 1159 587 L 1158 586 L 1158 585 L 1157 584 L 1157 583 L 1156 582 L 1156 581 L 1155 580 L 1155 579 L 1154 578 L 1154 577 L 1152 575 L 1152 574 L 1150 572 L 1150 571 L 1148 569 L 1148 568 L 1146 566 L 1146 565 L 1143 562 L 1143 561 L 1133 551 L 1132 551 L 1130 549 L 1129 549 L 1128 548 L 1127 548 L 1125 546 L 1124 546 L 1123 545 L 1122 545 L 1121 544 L 1119 544 L 1118 543 L 1115 543 L 1114 544 L 1113 544 L 1111 546 L 1110 546 L 1108 548 L 1107 548 L 1105 550 L 1104 550 L 1102 552 L 1101 552 L 1099 554 L 1098 554 L 1095 557 L 1094 557 L 1091 560 L 1090 560 L 1088 562 L 1087 562 L 1084 565 L 1083 565 L 1080 568 L 1079 568 L 1076 571 L 1075 571 L 1074 572 L 1073 572 L 1070 575 L 1069 575 L 1067 577 L 1066 577 L 1064 579 L 1063 579 L 1061 581 L 1060 581 L 1060 583 L 1061 584 L 1061 585 L 1077 601 L 1077 602 L 1081 606 L 1081 607 L 1086 612 L 1086 613 L 1089 616 L 1089 617 L 1092 620 L 1092 621 L 1095 624 L 1095 625 L 1097 627 L 1097 628 L 1099 630 L 1099 631 L 1101 633 L 1101 634 L 1102 635 L 1102 636 L 1103 637 L 1103 638 L 1105 640 L 1105 641 L 1106 642 L 1106 643 L 1107 644 L 1107 645 L 1108 646 L 1108 647 L 1109 648 L 1109 649 L 1110 650 L 1110 651 L 1111 652 L 1111 654 L 1112 655 L 1112 656 L 1113 657 L 1113 659 L 1114 660 L 1114 661 L 1115 662 L 1115 663 L 1116 664 L 1116 666 L 1117 667 L 1117 669 L 1118 670 L 1118 671 L 1119 672 L 1119 674 L 1120 675 L 1120 677 L 1121 678 L 1121 680 L 1122 681 L 1122 683 L 1123 684 L 1123 685 L 1124 686 L 1124 688 L 1125 689 L 1125 691 L 1126 692 L 1126 694 L 1127 695 L 1127 697 L 1128 698 L 1128 701 L 1129 702 L 1129 704 L 1130 705 L 1131 705 L 1131 704 L 1154 681 L 1155 681 L 1159 677 L 1160 677 L 1163 674 L 1164 674 L 1167 671 L 1168 671 L 1171 668 L 1172 668 L 1174 666 L 1175 666 L 1177 664 L 1178 664 L 1180 662 L 1181 662 L 1182 661 L 1183 661 L 1185 659 L 1186 659 L 1187 658 L 1188 658 L 1189 657 L 1190 657 L 1192 655 L 1193 655 L 1194 654 L 1195 654 L 1196 653 L 1197 653 L 1198 652 L 1199 652 L 1200 651 L 1201 651 L 1202 650 L 1203 650 L 1204 649 L 1205 649 L 1207 647 L 1208 647 L 1209 646 L 1210 646 L 1211 645 L 1212 645 L 1213 644 L 1214 644 L 1215 643 L 1216 643 L 1217 642 L 1218 642 L 1219 641 L 1221 641 L 1223 639 L 1225 639 L 1226 638 L 1227 638 L 1228 637 L 1229 637 L 1230 636 L 1231 636 L 1232 635 L 1234 635 L 1235 634 L 1236 634 L 1237 633 L 1238 633 L 1239 632 L 1239 599 L 1240 598 L 1240 485 L 1239 484 L 1239 483 L 1235 479 L 1235 478 L 1234 477 L 1231 477 L 1230 478 L 1228 478 L 1227 479 L 1225 479 L 1224 480 L 1223 480 L 1222 481 L 1220 481 L 1219 482 L 1217 482 L 1216 483 L 1213 483 L 1212 484 L 1210 484 L 1209 485 L 1207 485 L 1206 486 L 1205 486 L 1204 487 L 1202 487 L 1201 488 L 1199 488 L 1198 489 L 1196 489 L 1195 490 L 1193 490 L 1192 491 L 1190 491 L 1189 492 L 1187 492 L 1186 493 L 1184 493 L 1183 494 L 1180 494 L 1179 495 L 1177 495 L 1176 496 L 1173 496 L 1172 497 L 1170 497 L 1169 498 L 1167 498 L 1166 499 L 1164 499 L 1163 500 L 1160 500 L 1159 501 L 1156 501 L 1155 502 L 1150 502 L 1149 501 L 1150 500 L 1150 489 L 1151 488 L 1151 462 L 1150 461 L 1150 456 L 1149 455 L 1149 451 L 1148 450 L 1148 449 L 1149 448 L 1151 450 L 1152 450 L 1153 451 L 1154 451 L 1155 452 L 1156 452 L 1157 453 L 1158 453 L 1159 454 L 1160 454 L 1162 456 L 1163 456 L 1164 457 L 1165 457 L 1166 458 L 1168 458 L 1169 459 L 1170 459 L 1171 460 L 1173 460 L 1174 461 L 1176 461 L 1177 462 L 1180 462 L 1181 463 L 1194 463 L 1195 462 L 1200 462 L 1201 461 L 1204 461 L 1205 460 L 1208 460 L 1209 459 L 1213 459 L 1214 458 L 1216 458 L 1217 457 L 1219 457 L 1220 456 L 1222 456 L 1223 455 L 1224 455 L 1225 454 L 1226 454 L 1227 453 L 1229 453 L 1231 451 L 1232 451 L 1244 439 L 1244 438 L 1248 434 L 1248 433 L 1252 429 L 1252 428 L 1254 426 L 1254 424 L 1246 424 L 1245 423 L 1238 423 L 1237 422 L 1234 422 L 1233 421 L 1230 421 L 1229 420 L 1226 420 L 1225 419 L 1223 419 L 1222 418 L 1220 418 L 1219 417 L 1218 417 L 1217 416 L 1215 416 L 1214 415 L 1212 415 L 1211 414 L 1210 414 L 1209 413 L 1208 413 L 1207 412 L 1206 412 L 1205 411 L 1204 411 L 1202 409 L 1201 409 L 1200 408 L 1199 408 L 1197 406 L 1196 406 L 1194 404 L 1193 404 L 1191 402 L 1190 402 L 1186 398 L 1185 398 L 1180 393 L 1179 393 L 1174 388 L 1174 387 L 1168 381 L 1168 380 L 1164 376 L 1164 375 Z M 459 324 L 461 326 L 462 326 L 469 333 L 469 334 L 472 337 L 472 338 L 476 342 L 476 343 L 475 344 L 471 340 L 470 340 L 467 337 L 466 337 L 463 334 L 462 334 L 459 331 L 458 331 L 456 329 L 456 328 L 457 327 L 457 326 Z M 157 293 L 160 290 L 161 290 L 168 283 L 169 283 L 172 280 L 173 280 L 176 277 L 177 277 L 179 275 L 180 275 L 182 273 L 183 273 L 185 271 L 186 271 L 188 269 L 189 269 L 190 268 L 191 268 L 192 267 L 193 267 L 194 266 L 195 266 L 196 265 L 197 265 L 198 264 L 199 264 L 200 263 L 201 263 L 202 262 L 203 262 L 204 261 L 205 261 L 206 260 L 207 260 L 208 259 L 210 259 L 211 258 L 212 258 L 213 257 L 215 257 L 216 256 L 218 256 L 219 255 L 221 255 L 222 254 L 224 254 L 225 253 L 228 253 L 229 252 L 231 252 L 232 251 L 235 251 L 236 250 L 239 250 L 240 249 L 244 249 L 245 248 L 249 248 L 250 247 L 256 247 L 257 246 L 265 246 L 266 245 L 296 245 L 297 246 L 304 246 L 305 247 L 310 247 L 311 248 L 316 248 L 317 249 L 321 249 L 322 250 L 325 250 L 326 251 L 329 251 L 330 252 L 333 252 L 334 253 L 336 253 L 337 254 L 340 254 L 341 255 L 343 255 L 344 256 L 346 256 L 347 257 L 349 257 L 350 258 L 352 258 L 353 259 L 355 259 L 356 260 L 357 260 L 358 261 L 360 261 L 361 262 L 362 262 L 363 263 L 365 263 L 366 264 L 367 264 L 368 265 L 369 265 L 370 266 L 372 266 L 373 267 L 374 267 L 375 268 L 376 268 L 377 269 L 378 269 L 379 270 L 380 270 L 381 271 L 382 271 L 383 272 L 384 272 L 385 273 L 386 273 L 387 274 L 388 274 L 389 275 L 390 275 L 391 276 L 392 276 L 393 277 L 394 277 L 395 278 L 396 278 L 398 280 L 399 280 L 400 281 L 401 281 L 402 282 L 403 282 L 405 284 L 406 284 L 407 285 L 408 285 L 410 287 L 411 287 L 413 289 L 414 289 L 415 290 L 416 290 L 418 292 L 419 292 L 421 294 L 422 294 L 424 296 L 425 296 L 427 298 L 428 298 L 431 301 L 432 301 L 435 304 L 436 304 L 439 307 L 440 307 L 446 313 L 447 313 L 450 316 L 450 317 L 445 322 L 444 321 L 443 321 L 442 320 L 441 320 L 439 318 L 438 318 L 437 317 L 436 317 L 434 315 L 433 315 L 431 313 L 430 313 L 429 312 L 428 312 L 427 311 L 426 311 L 425 310 L 424 310 L 423 309 L 422 309 L 421 308 L 420 308 L 418 306 L 416 306 L 414 304 L 413 304 L 412 303 L 411 303 L 410 302 L 408 302 L 407 301 L 406 301 L 405 300 L 404 300 L 403 299 L 402 299 L 401 298 L 400 298 L 399 297 L 398 297 L 397 296 L 396 296 L 395 295 L 393 295 L 392 294 L 391 294 L 390 293 L 388 293 L 387 292 L 386 292 L 385 291 L 383 291 L 382 290 L 380 290 L 379 289 L 378 289 L 377 288 L 375 288 L 374 287 L 373 287 L 372 286 L 370 286 L 369 285 L 367 285 L 366 284 L 363 284 L 362 283 L 360 283 L 359 282 L 356 282 L 355 281 L 353 281 L 352 280 L 349 280 L 348 279 L 346 279 L 345 278 L 341 278 L 340 277 L 337 277 L 336 276 L 332 276 L 331 275 L 326 275 L 325 274 L 320 274 L 319 273 L 314 273 L 313 272 L 305 272 L 304 271 L 293 271 L 292 270 L 256 270 L 255 271 L 244 271 L 243 272 L 236 272 L 235 273 L 230 273 L 229 274 L 224 274 L 223 275 L 218 275 L 217 276 L 213 276 L 212 277 L 209 277 L 208 278 L 204 278 L 203 279 L 201 279 L 200 280 L 197 280 L 196 281 L 194 281 L 193 282 L 190 282 L 189 283 L 187 283 L 186 284 L 184 284 L 183 285 L 181 285 L 180 286 L 178 286 L 177 287 L 175 287 L 174 288 L 172 288 L 171 289 L 170 289 L 169 290 L 167 290 L 166 291 L 165 291 L 164 292 L 162 292 L 161 293 L 160 293 L 159 294 L 158 294 Z M 1369 209 L 1368 209 L 1367 210 L 1365 210 L 1364 211 L 1362 211 L 1361 212 L 1359 212 L 1358 213 L 1356 213 L 1355 214 L 1354 214 L 1353 215 L 1351 215 L 1350 216 L 1348 216 L 1347 217 L 1346 217 L 1345 218 L 1344 218 L 1343 219 L 1341 219 L 1340 220 L 1339 220 L 1338 221 L 1337 221 L 1336 222 L 1335 222 L 1334 223 L 1333 223 L 1332 224 L 1331 224 L 1330 225 L 1329 225 L 1328 226 L 1327 226 L 1326 227 L 1325 227 L 1324 228 L 1323 228 L 1321 230 L 1320 230 L 1318 232 L 1317 232 L 1315 234 L 1314 234 L 1312 236 L 1311 236 L 1308 239 L 1307 239 L 1304 242 L 1303 242 L 1300 245 L 1299 245 L 1291 253 L 1290 253 L 1288 255 L 1288 256 L 1275 269 L 1275 270 L 1270 275 L 1270 276 L 1266 280 L 1266 281 L 1263 284 L 1263 285 L 1260 288 L 1260 289 L 1258 291 L 1258 292 L 1256 294 L 1256 295 L 1255 296 L 1255 297 L 1254 298 L 1254 299 L 1253 300 L 1253 302 L 1252 303 L 1252 304 L 1251 305 L 1251 307 L 1250 308 L 1250 310 L 1249 311 L 1249 313 L 1248 314 L 1248 316 L 1247 317 L 1247 319 L 1246 320 L 1246 322 L 1247 322 L 1253 316 L 1254 316 L 1258 312 L 1259 312 L 1262 309 L 1263 309 L 1266 306 L 1267 306 L 1269 304 L 1270 304 L 1272 302 L 1273 302 L 1274 301 L 1275 302 L 1275 400 L 1274 401 L 1274 591 L 1273 592 L 1273 610 L 1272 611 L 1272 617 L 1271 618 L 1271 622 L 1270 623 L 1270 626 L 1269 627 L 1269 629 L 1268 630 L 1268 632 L 1267 633 L 1267 635 L 1266 636 L 1266 638 L 1265 639 L 1265 640 L 1264 641 L 1264 642 L 1263 643 L 1263 644 L 1262 645 L 1262 646 L 1261 647 L 1261 648 L 1260 649 L 1260 650 L 1259 651 L 1259 652 L 1257 654 L 1257 655 L 1256 656 L 1256 657 L 1255 658 L 1255 659 L 1254 660 L 1254 661 L 1253 662 L 1253 663 L 1252 664 L 1252 665 L 1251 666 L 1251 668 L 1250 669 L 1250 671 L 1251 672 L 1251 674 L 1254 674 L 1255 673 L 1256 673 L 1257 672 L 1258 672 L 1260 670 L 1261 670 L 1264 667 L 1265 667 L 1272 660 L 1272 659 L 1275 656 L 1275 655 L 1277 653 L 1277 652 L 1279 650 L 1279 649 L 1280 648 L 1281 648 L 1282 649 L 1282 652 L 1283 653 L 1283 655 L 1284 656 L 1284 657 L 1285 658 L 1285 659 L 1286 660 L 1286 661 L 1287 662 L 1287 664 L 1288 665 L 1288 666 L 1289 667 L 1289 668 L 1291 670 L 1291 671 L 1292 672 L 1292 673 L 1294 675 L 1294 676 L 1295 677 L 1295 678 L 1297 680 L 1297 681 L 1300 684 L 1300 685 L 1303 688 L 1303 689 L 1310 696 L 1310 697 L 1315 702 L 1316 702 L 1320 706 L 1321 706 L 1323 708 L 1325 708 L 1328 705 L 1328 704 L 1330 702 L 1331 702 L 1355 678 L 1356 678 L 1368 666 L 1368 665 L 1382 651 L 1382 650 L 1386 646 L 1386 645 L 1387 644 L 1387 641 L 1385 641 L 1383 643 L 1382 643 L 1381 644 L 1380 644 L 1379 645 L 1377 645 L 1376 646 L 1373 646 L 1372 645 L 1371 645 L 1370 644 L 1369 644 L 1362 637 L 1362 636 L 1359 633 L 1359 632 L 1357 630 L 1357 629 L 1355 627 L 1355 626 L 1354 625 L 1354 624 L 1353 623 L 1353 621 L 1352 620 L 1352 618 L 1351 617 L 1351 615 L 1350 614 L 1350 612 L 1349 611 L 1349 608 L 1348 607 L 1348 605 L 1347 604 L 1347 601 L 1346 600 L 1346 594 L 1345 593 L 1345 586 L 1344 585 L 1344 551 L 1345 550 L 1345 518 L 1346 517 L 1346 439 L 1347 438 L 1347 349 L 1346 348 L 1346 305 L 1347 304 L 1347 280 L 1348 279 L 1349 279 L 1350 278 L 1352 278 L 1353 277 L 1354 277 L 1355 276 L 1357 276 L 1358 275 L 1360 275 L 1361 274 L 1363 274 L 1364 273 L 1365 273 L 1366 272 L 1368 272 L 1369 271 L 1370 271 L 1371 270 L 1373 270 L 1374 269 L 1375 269 L 1376 268 L 1378 268 L 1379 267 L 1380 267 L 1381 266 L 1383 266 L 1384 265 L 1385 265 L 1386 264 L 1388 264 L 1389 263 L 1390 263 L 1391 262 L 1392 262 L 1393 261 L 1394 261 L 1395 260 L 1396 260 L 1397 259 L 1398 259 L 1399 258 L 1400 258 L 1401 257 L 1402 257 L 1404 255 L 1405 255 L 1407 253 L 1408 253 L 1415 246 L 1415 238 L 1414 238 L 1413 239 L 1411 239 L 1410 240 L 1409 240 L 1408 241 L 1406 241 L 1405 242 L 1404 242 L 1403 243 L 1402 243 L 1401 244 L 1399 244 L 1398 245 L 1397 245 L 1396 246 L 1394 246 L 1393 247 L 1392 247 L 1391 248 L 1390 248 L 1389 249 L 1388 249 L 1387 250 L 1385 250 L 1384 251 L 1383 251 L 1382 252 L 1380 252 L 1379 253 L 1378 253 L 1377 254 L 1376 254 L 1375 255 L 1374 255 L 1373 256 L 1372 256 L 1371 257 L 1369 257 L 1368 258 L 1367 258 L 1366 259 L 1365 259 L 1364 260 L 1362 260 L 1361 261 L 1360 261 L 1359 262 L 1357 262 L 1356 263 L 1354 263 L 1353 264 L 1350 264 L 1349 265 L 1348 265 L 1347 264 L 1347 251 L 1348 250 L 1348 245 L 1349 244 L 1349 241 L 1350 240 L 1350 238 L 1351 237 L 1351 235 L 1352 234 L 1352 233 L 1353 232 L 1353 230 L 1354 229 L 1354 228 L 1356 226 L 1356 225 L 1357 224 L 1357 223 L 1360 220 L 1360 219 L 1369 210 Z M 688 2 L 687 2 L 686 3 L 685 3 L 683 5 L 682 5 L 681 6 L 680 6 L 678 8 L 677 8 L 676 9 L 675 9 L 674 10 L 673 10 L 672 11 L 671 11 L 670 12 L 669 12 L 668 13 L 667 13 L 666 14 L 665 14 L 664 15 L 663 15 L 662 16 L 661 16 L 660 17 L 659 17 L 658 18 L 657 18 L 656 19 L 655 19 L 653 21 L 652 21 L 651 22 L 650 22 L 648 24 L 647 24 L 645 26 L 644 26 L 641 29 L 640 29 L 638 31 L 637 31 L 635 33 L 634 33 L 633 34 L 632 34 L 629 37 L 628 37 L 626 39 L 625 39 L 622 42 L 621 42 L 608 55 L 608 56 L 605 59 L 605 60 L 603 62 L 603 63 L 602 64 L 602 65 L 600 67 L 600 69 L 599 70 L 599 71 L 598 72 L 598 74 L 597 75 L 597 79 L 596 80 L 596 83 L 595 84 L 595 90 L 594 91 L 594 99 L 593 100 L 593 114 L 592 115 L 592 165 L 593 166 L 593 175 L 594 176 L 594 186 L 595 187 L 595 196 L 594 197 L 594 200 L 593 201 L 593 204 L 592 205 L 592 209 L 591 210 L 591 213 L 590 214 L 590 218 L 589 219 L 589 225 L 588 226 L 588 235 L 589 236 L 589 239 L 590 240 L 590 241 L 591 242 L 591 244 L 592 245 L 592 350 L 593 351 L 593 356 L 592 357 L 592 364 L 591 365 L 590 364 L 590 363 L 589 362 L 589 361 L 587 359 L 587 358 L 585 356 L 585 355 L 583 353 L 583 352 L 581 350 L 581 349 L 580 348 L 580 347 L 578 345 L 578 344 L 576 342 L 576 341 L 573 338 L 573 337 L 571 335 L 571 334 L 570 333 L 570 332 L 568 330 L 568 329 L 566 327 L 566 326 L 563 323 L 563 322 L 562 321 L 562 320 L 560 318 L 560 317 L 557 314 L 557 313 L 555 311 L 555 310 L 553 308 L 553 307 L 550 304 L 550 303 L 548 301 L 548 300 L 547 299 L 547 298 L 545 296 L 545 295 L 544 294 L 544 293 L 541 290 L 541 289 L 540 288 L 540 287 L 538 285 L 538 284 L 537 283 L 537 282 L 535 280 L 535 279 L 534 278 L 534 277 L 532 275 L 532 274 L 531 273 L 531 272 L 530 271 L 530 270 L 528 268 L 528 267 L 527 266 L 527 265 L 525 263 L 525 262 L 524 261 L 524 260 L 522 258 L 522 257 L 521 256 L 521 255 L 520 254 L 520 253 L 519 252 L 519 251 L 518 250 L 518 249 L 517 248 L 517 247 L 516 246 L 516 245 L 515 244 L 515 243 L 514 242 L 514 240 L 513 239 L 513 237 L 512 236 L 512 231 L 511 230 L 511 224 L 512 223 L 512 216 L 513 215 L 513 212 L 514 211 L 514 208 L 515 207 L 515 205 L 516 204 L 516 202 L 517 201 L 517 200 L 518 199 L 518 198 L 519 197 L 519 196 L 520 195 L 520 194 L 521 193 L 521 192 L 522 191 L 522 190 L 523 189 L 523 188 L 524 187 L 524 186 L 526 184 L 526 183 L 527 182 L 527 181 L 529 179 L 529 178 L 531 176 L 531 175 L 533 173 L 533 172 L 535 170 L 535 169 L 537 167 L 537 166 L 539 164 L 539 163 L 541 161 L 541 160 L 543 158 L 543 157 L 541 157 L 537 161 L 536 161 L 533 164 L 532 164 L 528 168 L 527 168 L 523 172 L 522 172 L 514 180 L 513 180 L 494 199 L 494 200 L 485 209 L 485 210 L 480 215 L 480 216 L 475 221 L 475 222 L 471 226 L 471 227 L 468 230 L 468 231 L 465 234 L 465 235 L 462 238 L 462 239 L 459 242 L 459 243 L 456 246 L 456 247 L 454 249 L 454 250 L 451 253 L 451 254 L 450 255 L 450 256 L 448 258 L 448 259 L 446 261 L 446 262 L 445 263 L 445 265 L 444 266 L 444 268 L 443 269 L 443 272 L 442 273 L 442 280 L 443 281 L 443 286 L 444 287 L 444 290 L 445 291 L 445 293 L 446 294 L 446 296 L 447 297 L 447 298 L 448 299 L 448 300 L 449 301 L 449 302 L 450 303 L 450 304 L 451 305 L 451 306 L 453 308 L 453 309 L 454 310 L 453 311 L 452 311 L 447 306 L 446 306 L 442 302 L 441 302 L 438 299 L 437 299 L 435 297 L 434 297 L 431 294 L 430 294 L 428 292 L 427 292 L 426 291 L 425 291 L 423 289 L 422 289 L 420 287 L 419 287 L 417 285 L 416 285 L 414 283 L 413 283 L 412 282 L 411 282 L 409 280 L 408 280 L 407 279 L 406 279 L 404 277 L 403 277 L 402 276 L 401 276 L 400 275 L 399 275 L 398 274 L 397 274 L 396 273 L 395 273 L 393 271 L 392 271 L 391 270 L 390 270 L 389 269 L 388 269 L 387 268 L 386 268 L 385 267 L 384 267 L 383 266 L 382 266 L 381 265 L 380 265 L 379 264 L 377 264 L 376 263 L 375 263 L 374 262 L 373 262 L 372 261 L 371 261 L 370 260 L 369 260 L 368 259 L 366 259 L 365 258 L 364 258 L 363 257 L 361 257 L 360 256 L 359 256 L 358 255 L 356 255 L 355 254 L 353 254 L 352 253 L 351 253 L 350 252 L 347 252 L 346 251 L 344 251 L 343 250 L 341 250 L 340 249 L 338 249 L 337 248 L 335 248 L 334 247 L 331 247 L 330 246 L 327 246 L 326 245 L 322 245 L 321 244 L 317 244 L 316 243 L 312 243 L 311 242 L 305 242 L 304 241 L 293 241 L 292 240 L 268 240 L 267 241 L 258 241 L 257 242 L 251 242 L 250 243 L 245 243 L 244 244 L 240 244 L 239 245 L 236 245 L 235 246 L 232 246 L 231 247 L 228 247 L 227 248 L 225 248 L 224 249 L 221 249 L 220 250 L 218 250 L 217 251 L 215 251 L 214 252 L 213 252 L 212 253 L 210 253 L 209 254 L 208 254 L 207 255 L 205 255 L 204 256 L 203 256 L 202 257 L 201 257 L 200 258 L 199 258 L 198 259 L 197 259 L 196 260 L 195 260 L 194 261 L 193 261 L 192 262 L 191 262 L 190 263 L 189 263 L 188 264 L 187 264 L 185 266 L 184 266 L 183 267 L 182 267 L 180 269 L 179 269 L 177 271 L 176 271 L 174 273 L 173 273 L 170 276 L 169 276 L 167 278 L 166 278 L 161 283 L 160 283 L 145 298 L 145 299 L 142 302 L 141 302 L 140 303 L 139 303 L 137 305 L 136 305 L 135 306 L 134 306 L 133 307 L 132 307 L 130 309 L 129 309 L 128 310 L 127 310 L 126 311 L 125 311 L 123 313 L 122 313 L 120 315 L 119 315 L 118 316 L 117 316 L 114 319 L 113 319 L 111 321 L 110 321 L 108 323 L 107 323 L 104 326 L 103 326 L 100 329 L 99 329 L 95 333 L 94 333 L 89 338 L 88 338 L 84 342 L 83 342 L 60 365 L 60 366 L 53 373 L 53 374 L 50 377 L 50 378 L 48 380 L 48 381 L 45 384 L 45 385 L 42 388 L 42 389 L 40 391 L 40 392 L 38 394 L 38 395 L 36 397 L 36 398 L 35 399 L 35 400 L 34 401 L 34 402 L 32 404 L 32 405 L 31 406 L 31 407 L 30 408 L 30 409 L 29 410 L 29 411 L 28 412 L 28 413 L 27 414 L 27 415 L 26 416 L 26 417 L 25 418 L 25 419 L 24 420 L 24 421 L 23 422 L 23 423 L 22 424 L 22 425 L 21 426 L 21 427 L 20 428 L 20 430 L 19 431 L 19 432 L 18 433 L 18 435 L 17 436 L 17 437 L 16 438 L 16 440 L 15 441 L 15 443 L 14 444 L 14 446 L 13 447 L 13 449 L 12 450 L 12 452 L 11 453 L 11 455 L 10 456 L 10 458 L 9 459 L 9 462 L 8 463 L 8 467 L 7 468 L 7 473 L 6 474 L 6 480 L 5 481 L 5 496 L 4 497 L 4 503 L 5 504 L 5 519 L 6 520 L 6 526 L 7 527 L 7 532 L 8 533 L 8 537 L 9 538 L 9 541 L 10 542 L 10 546 L 11 547 L 11 550 L 12 551 L 12 554 L 13 555 L 13 557 L 14 558 L 14 560 L 15 561 L 15 563 L 16 564 L 16 566 L 17 567 L 17 569 L 18 570 L 18 571 L 19 572 L 19 574 L 20 575 L 20 576 L 21 577 L 21 579 L 22 580 L 22 581 L 23 582 L 23 583 L 24 584 L 24 585 L 25 586 L 25 588 L 27 590 L 27 592 L 29 594 L 29 595 L 30 596 L 30 597 L 31 598 L 31 599 L 32 600 L 32 601 L 33 602 L 33 603 L 35 605 L 35 606 L 36 607 L 36 608 L 38 610 L 38 611 L 40 613 L 40 614 L 42 616 L 42 617 L 44 619 L 44 620 L 47 623 L 47 624 L 50 627 L 50 628 L 55 633 L 55 634 L 80 659 L 81 659 L 84 662 L 85 662 L 89 666 L 90 666 L 93 669 L 94 669 L 96 671 L 97 671 L 100 674 L 101 674 L 103 676 L 104 676 L 105 677 L 106 677 L 108 679 L 109 679 L 110 680 L 111 680 L 113 682 L 114 682 L 116 684 L 117 684 L 118 685 L 119 685 L 120 686 L 121 686 L 122 687 L 123 687 L 124 688 L 125 688 L 126 689 L 127 689 L 128 690 L 129 690 L 130 691 L 131 691 L 132 692 L 133 692 L 134 693 L 135 693 L 136 694 L 138 694 L 139 695 L 140 695 L 141 696 L 142 696 L 143 697 L 144 697 L 145 698 L 147 698 L 148 699 L 149 699 L 150 700 L 152 700 L 153 701 L 155 701 L 156 702 L 158 702 L 159 703 L 160 703 L 161 704 L 164 704 L 165 705 L 167 705 L 168 706 L 170 706 L 171 707 L 173 707 L 174 708 L 178 708 L 179 709 L 182 709 L 183 710 L 186 710 L 187 711 L 191 711 L 192 712 L 197 712 L 198 713 L 205 713 L 206 714 L 213 714 L 214 715 L 232 715 L 233 716 L 245 716 L 246 715 L 260 715 L 261 714 L 268 714 L 269 713 L 275 713 L 276 712 L 281 712 L 282 711 L 286 711 L 287 710 L 290 710 L 291 709 L 295 709 L 296 708 L 299 708 L 300 707 L 303 707 L 304 706 L 306 706 L 307 705 L 309 705 L 310 704 L 312 704 L 313 703 L 315 703 L 316 702 L 317 702 L 318 701 L 320 701 L 321 700 L 323 700 L 324 699 L 326 699 L 327 698 L 328 698 L 329 697 L 330 697 L 331 696 L 333 696 L 335 694 L 336 694 L 337 693 L 338 693 L 339 692 L 340 692 L 341 691 L 342 691 L 343 690 L 344 690 L 345 689 L 346 689 L 347 688 L 348 688 L 350 686 L 351 686 L 353 684 L 354 684 L 356 682 L 357 682 L 359 680 L 360 680 L 362 678 L 371 678 L 372 677 L 374 677 L 375 676 L 377 676 L 379 674 L 380 674 L 387 667 L 387 666 L 390 663 L 390 662 L 391 661 L 391 660 L 393 658 L 393 657 L 394 656 L 394 655 L 395 654 L 395 653 L 396 652 L 396 651 L 397 650 L 397 649 L 398 648 L 398 646 L 399 645 L 399 643 L 400 642 L 400 639 L 398 639 L 397 640 L 396 640 L 395 641 L 393 641 L 392 642 L 391 642 L 390 643 L 388 643 L 387 644 L 386 644 L 385 645 L 384 645 L 383 646 L 382 646 L 380 648 L 379 648 L 373 654 L 373 655 L 371 657 L 371 658 L 369 660 L 369 661 L 368 662 L 368 663 L 367 664 L 367 665 L 366 666 L 366 667 L 363 670 L 362 670 L 359 673 L 358 673 L 355 676 L 354 676 L 352 678 L 351 678 L 349 680 L 348 680 L 346 682 L 345 682 L 343 684 L 342 684 L 341 685 L 340 685 L 339 686 L 338 686 L 336 688 L 335 688 L 334 689 L 333 689 L 332 690 L 331 690 L 330 691 L 329 691 L 328 692 L 326 692 L 325 693 L 324 693 L 323 694 L 321 694 L 320 695 L 319 695 L 318 696 L 316 696 L 315 697 L 314 697 L 313 698 L 311 698 L 310 699 L 308 699 L 307 700 L 304 700 L 303 701 L 301 701 L 300 702 L 297 702 L 296 703 L 293 703 L 292 704 L 288 704 L 287 705 L 283 705 L 282 706 L 278 706 L 277 707 L 271 707 L 270 708 L 262 708 L 261 709 L 252 709 L 251 710 L 221 710 L 220 709 L 209 709 L 208 708 L 201 708 L 200 707 L 195 707 L 194 706 L 190 706 L 189 705 L 186 705 L 185 704 L 181 704 L 180 703 L 177 703 L 176 702 L 174 702 L 173 701 L 170 701 L 169 700 L 167 700 L 166 699 L 164 699 L 163 698 L 162 698 L 161 697 L 159 697 L 158 696 L 156 696 L 155 695 L 154 695 L 153 694 L 151 694 L 150 693 L 148 693 L 147 692 L 146 692 L 145 691 L 144 691 L 143 690 L 142 690 L 141 689 L 140 689 L 139 688 L 137 688 L 136 687 L 135 687 L 134 686 L 133 686 L 132 685 L 131 685 L 130 684 L 129 684 L 128 683 L 127 683 L 125 681 L 124 681 L 123 680 L 122 680 L 121 679 L 120 679 L 119 678 L 118 678 L 117 677 L 116 677 L 114 675 L 113 675 L 111 673 L 110 673 L 108 671 L 107 671 L 106 670 L 105 670 L 103 668 L 102 668 L 99 665 L 98 665 L 95 662 L 94 662 L 91 659 L 90 659 L 85 654 L 84 654 L 76 646 L 75 646 L 68 639 L 68 638 L 58 628 L 58 627 L 54 623 L 54 622 L 51 619 L 51 618 L 49 616 L 49 615 L 46 612 L 46 611 L 44 609 L 44 608 L 42 606 L 42 605 L 40 603 L 40 602 L 39 601 L 39 600 L 38 599 L 38 598 L 36 596 L 36 595 L 35 594 L 35 593 L 34 592 L 34 591 L 33 590 L 33 589 L 32 588 L 32 587 L 31 586 L 31 585 L 30 584 L 30 582 L 29 581 L 29 580 L 28 579 L 28 578 L 27 577 L 27 576 L 26 575 L 26 573 L 25 572 L 25 571 L 24 570 L 24 568 L 23 567 L 23 565 L 22 564 L 22 562 L 21 561 L 21 559 L 20 558 L 20 556 L 19 555 L 19 552 L 18 551 L 18 548 L 17 547 L 17 544 L 16 543 L 16 540 L 15 539 L 15 535 L 14 534 L 14 529 L 13 528 L 13 521 L 12 520 L 12 510 L 11 509 L 11 497 L 12 496 L 12 482 L 13 481 L 13 474 L 14 473 L 14 468 L 15 467 L 15 463 L 16 462 L 16 459 L 17 458 L 17 455 L 18 454 L 18 451 L 19 450 L 19 448 L 20 447 L 20 445 L 21 444 L 21 442 L 22 441 L 22 439 L 23 438 L 23 436 L 24 435 L 24 434 L 25 433 L 25 431 L 26 430 L 26 429 L 27 428 L 27 427 L 28 426 L 28 424 L 29 423 L 29 422 L 30 421 L 30 420 L 31 419 L 31 418 L 32 417 L 32 416 L 33 415 L 33 414 L 34 413 L 34 412 L 35 411 L 35 410 L 36 409 L 36 408 L 38 406 L 38 405 L 39 404 L 39 403 L 41 401 L 41 400 L 42 399 L 42 398 L 44 396 L 44 395 L 46 393 L 46 392 L 48 390 L 48 389 L 49 388 L 49 387 L 52 384 L 52 383 L 55 380 L 55 379 L 59 375 L 59 374 L 66 367 L 66 366 L 82 350 L 83 350 L 92 341 L 93 341 L 97 337 L 98 337 L 102 333 L 103 333 L 106 330 L 107 330 L 109 328 L 110 328 L 113 325 L 114 325 L 116 323 L 117 323 L 119 321 L 120 321 L 122 319 L 123 319 L 125 317 L 126 317 L 128 315 L 129 315 L 131 313 L 132 314 L 132 315 L 129 318 L 129 319 L 127 321 L 127 322 L 125 324 L 125 325 L 124 326 L 124 327 L 123 328 L 123 329 L 121 331 L 121 332 L 120 333 L 120 334 L 119 335 L 119 336 L 118 337 L 118 338 L 117 339 L 117 340 L 116 341 L 116 342 L 115 343 L 115 344 L 114 345 L 114 346 L 113 347 L 113 348 L 112 349 L 112 351 L 111 352 L 111 353 L 110 354 L 110 355 L 109 356 L 109 358 L 108 359 L 108 361 L 107 362 L 107 363 L 106 364 L 106 367 L 105 368 L 105 370 L 104 371 L 104 373 L 103 374 L 103 377 L 102 378 L 102 380 L 101 381 L 101 384 L 100 385 L 100 389 L 99 390 L 99 393 L 98 394 L 98 400 L 97 401 L 97 410 L 96 411 L 96 441 L 97 442 L 97 452 L 98 453 L 98 459 L 99 460 L 99 464 L 100 465 L 100 468 L 101 469 L 101 472 L 102 473 L 102 475 L 103 476 L 103 479 L 104 480 L 104 482 L 105 483 L 105 485 L 106 486 L 106 487 L 107 488 L 107 490 L 108 491 L 108 493 L 109 494 L 109 495 L 110 496 L 110 497 L 111 498 L 111 499 L 112 500 L 112 502 L 113 503 L 113 504 L 114 505 L 114 506 L 115 507 L 115 508 L 117 510 L 117 511 L 118 512 L 118 513 L 119 514 L 119 515 L 121 517 L 121 518 L 122 519 L 122 520 L 124 522 L 124 523 L 126 525 L 126 526 L 129 529 L 129 530 L 132 533 L 132 534 L 136 538 L 136 539 L 155 558 L 156 558 L 160 562 L 161 562 L 164 565 L 165 565 L 167 567 L 168 567 L 170 569 L 171 569 L 173 571 L 174 571 L 176 573 L 177 573 L 178 574 L 179 574 L 181 576 L 182 576 L 183 577 L 184 577 L 185 578 L 186 578 L 187 579 L 188 579 L 189 580 L 191 580 L 192 581 L 193 581 L 194 582 L 195 582 L 196 583 L 197 583 L 198 584 L 200 584 L 201 585 L 202 585 L 203 586 L 205 586 L 206 587 L 208 587 L 209 588 L 211 588 L 212 589 L 214 589 L 215 590 L 218 590 L 219 591 L 222 591 L 223 592 L 226 592 L 227 593 L 231 593 L 232 594 L 239 594 L 240 595 L 254 595 L 255 596 L 257 596 L 258 595 L 273 595 L 274 594 L 282 594 L 283 593 L 288 593 L 289 592 L 293 592 L 294 591 L 295 592 L 298 592 L 299 591 L 302 591 L 303 590 L 305 590 L 306 589 L 308 589 L 309 588 L 310 588 L 311 587 L 313 587 L 314 586 L 315 586 L 316 585 L 317 585 L 318 584 L 319 584 L 320 583 L 321 583 L 323 581 L 324 581 L 326 579 L 327 579 L 329 577 L 330 577 L 333 574 L 333 573 L 336 570 L 336 568 L 335 567 L 334 567 L 333 566 L 330 566 L 329 565 L 319 565 L 318 566 L 313 566 L 312 567 L 310 567 L 309 568 L 307 568 L 306 569 L 305 569 L 304 570 L 303 570 L 301 572 L 300 572 L 297 575 L 296 575 L 294 577 L 294 578 L 291 581 L 291 583 L 290 584 L 290 586 L 289 587 L 286 587 L 285 588 L 279 588 L 278 589 L 269 589 L 268 590 L 243 590 L 242 589 L 234 589 L 233 588 L 228 588 L 227 587 L 224 587 L 223 586 L 220 586 L 219 585 L 217 585 L 216 584 L 213 584 L 212 583 L 210 583 L 209 582 L 207 582 L 206 581 L 204 581 L 203 580 L 202 580 L 201 579 L 200 579 L 199 578 L 197 578 L 196 577 L 195 577 L 194 576 L 193 576 L 192 575 L 191 575 L 189 573 L 187 573 L 185 571 L 184 571 L 183 570 L 182 570 L 181 569 L 180 569 L 178 567 L 177 567 L 175 565 L 174 565 L 173 564 L 172 564 L 169 561 L 168 561 L 164 557 L 163 557 L 158 552 L 157 552 L 143 538 L 143 537 L 136 530 L 136 529 L 134 527 L 134 526 L 131 523 L 131 522 L 129 520 L 129 519 L 127 517 L 127 516 L 125 514 L 125 513 L 124 512 L 124 511 L 122 509 L 122 508 L 121 507 L 121 506 L 120 505 L 120 504 L 119 503 L 119 502 L 118 501 L 118 500 L 117 499 L 117 498 L 116 497 L 116 496 L 115 495 L 115 494 L 114 493 L 114 491 L 113 490 L 113 489 L 112 488 L 112 486 L 111 485 L 111 483 L 110 482 L 110 480 L 109 479 L 109 477 L 108 476 L 108 474 L 107 473 L 107 470 L 106 469 L 106 467 L 105 466 L 105 463 L 104 462 L 104 457 L 103 456 L 103 450 L 102 449 L 102 436 L 101 435 L 101 421 L 102 420 L 102 408 L 103 407 L 103 400 L 104 399 L 104 394 L 105 393 L 105 389 L 106 388 L 106 384 L 107 383 L 107 380 L 108 379 L 108 376 L 109 375 L 109 373 L 110 372 L 110 370 L 111 369 L 111 367 L 112 366 L 112 364 L 113 363 L 113 361 L 114 360 L 114 358 L 115 357 L 115 355 L 116 354 L 116 353 L 117 352 L 117 351 L 118 350 L 118 349 L 119 348 L 119 347 L 120 346 L 120 344 L 121 343 L 121 342 L 122 341 L 122 340 L 123 339 L 123 338 L 125 336 L 125 335 L 126 334 L 126 333 L 127 332 L 127 331 L 128 330 L 128 329 L 130 327 L 130 326 L 131 325 L 131 324 L 133 322 L 133 321 L 135 319 L 135 318 L 137 316 L 137 315 L 140 312 L 140 311 L 144 307 L 144 306 L 145 305 L 146 305 L 147 304 L 148 304 L 149 303 L 150 303 L 151 302 L 152 302 L 153 301 L 154 301 L 155 300 L 156 300 L 157 299 L 159 299 L 160 298 L 161 298 L 162 297 L 164 297 L 165 296 L 167 296 L 168 295 L 169 295 L 170 294 L 172 294 L 173 293 L 174 293 L 175 292 L 177 292 L 178 291 L 180 291 L 181 290 L 183 290 L 184 289 L 187 289 L 188 288 L 190 288 L 191 287 L 193 287 L 194 286 L 196 286 L 197 285 L 200 285 L 201 284 L 203 284 L 204 283 L 208 283 L 209 282 L 212 282 L 213 281 L 216 281 L 217 280 L 221 280 L 222 279 L 227 279 L 228 278 L 233 278 L 234 277 L 241 277 L 242 276 L 251 276 L 252 275 L 269 275 L 270 274 L 274 274 L 275 275 L 296 275 L 297 276 L 305 276 L 306 277 L 314 277 L 315 278 L 321 278 L 322 279 L 327 279 L 328 280 L 332 280 L 333 281 L 337 281 L 338 282 L 341 282 L 342 283 L 345 283 L 346 284 L 349 284 L 350 285 L 353 285 L 354 286 L 356 286 L 357 287 L 359 287 L 360 288 L 363 288 L 364 289 L 366 289 L 367 290 L 369 290 L 370 291 L 372 291 L 373 292 L 375 292 L 376 293 L 377 293 L 378 294 L 380 294 L 381 295 L 382 295 L 383 296 L 385 296 L 386 297 L 387 297 L 388 298 L 389 298 L 390 299 L 392 299 L 393 300 L 394 300 L 395 301 L 396 301 L 397 302 L 399 302 L 400 303 L 401 303 L 402 304 L 403 304 L 404 305 L 405 305 L 406 306 L 407 306 L 408 307 L 409 307 L 410 308 L 411 308 L 412 309 L 413 309 L 414 310 L 415 310 L 416 311 L 417 311 L 418 312 L 419 312 L 420 313 L 421 313 L 423 315 L 424 315 L 425 316 L 426 316 L 428 318 L 429 318 L 430 319 L 431 319 L 432 320 L 433 320 L 435 322 L 436 322 L 438 324 L 439 324 L 441 326 L 436 331 L 436 332 L 431 337 L 431 338 L 427 342 L 427 343 L 423 347 L 423 348 L 420 351 L 420 352 L 418 354 L 418 355 L 416 357 L 416 358 L 414 360 L 414 361 L 412 363 L 412 364 L 410 366 L 410 367 L 408 369 L 408 370 L 406 372 L 406 373 L 404 375 L 404 376 L 403 377 L 403 378 L 401 380 L 401 381 L 400 382 L 400 383 L 398 385 L 398 386 L 397 387 L 397 388 L 395 390 L 395 391 L 394 392 L 394 393 L 392 395 L 392 396 L 391 397 L 391 398 L 390 399 L 390 400 L 389 401 L 389 402 L 388 403 L 388 404 L 386 406 L 386 407 L 385 408 L 385 409 L 384 410 L 384 411 L 383 412 L 383 413 L 382 414 L 382 415 L 381 416 L 381 418 L 380 419 L 380 420 L 379 421 L 379 422 L 378 423 L 378 424 L 377 425 L 377 427 L 376 428 L 376 429 L 375 430 L 375 432 L 374 433 L 374 435 L 373 436 L 373 437 L 372 438 L 372 440 L 371 441 L 371 444 L 370 445 L 370 447 L 369 448 L 369 450 L 368 451 L 368 454 L 367 455 L 367 458 L 366 459 L 366 463 L 365 464 L 365 468 L 364 469 L 364 473 L 363 474 L 363 481 L 362 482 L 362 494 L 361 495 L 361 510 L 362 511 L 362 520 L 363 521 L 363 527 L 364 528 L 364 532 L 365 533 L 365 537 L 366 538 L 366 540 L 367 541 L 367 543 L 368 544 L 368 545 L 369 546 L 369 548 L 370 549 L 370 550 L 371 551 L 371 552 L 372 553 L 372 554 L 373 555 L 373 556 L 374 557 L 374 558 L 375 559 L 375 560 L 377 562 L 377 563 L 379 565 L 379 566 L 382 569 L 382 570 L 386 574 L 386 575 L 390 579 L 390 580 L 395 585 L 395 586 L 400 591 L 400 592 L 416 608 L 416 609 L 425 618 L 426 618 L 427 619 L 427 620 L 432 625 L 433 625 L 450 642 L 451 642 L 458 649 L 459 649 L 464 654 L 465 654 L 470 659 L 471 659 L 475 663 L 476 663 L 480 667 L 481 667 L 482 668 L 483 668 L 485 670 L 486 670 L 494 678 L 495 678 L 506 689 L 507 689 L 524 706 L 524 707 L 533 716 L 533 717 L 536 720 L 536 721 L 539 724 L 539 725 L 542 728 L 542 729 L 543 730 L 543 731 L 544 732 L 544 733 L 545 734 L 545 735 L 546 736 L 546 737 L 547 738 L 547 739 L 548 740 L 548 741 L 549 742 L 549 743 L 550 744 L 550 746 L 551 747 L 551 749 L 552 750 L 552 752 L 553 753 L 553 755 L 554 756 L 554 757 L 555 757 L 557 755 L 558 755 L 562 751 L 562 750 L 564 748 L 564 747 L 566 745 L 566 744 L 567 743 L 567 742 L 568 741 L 568 740 L 569 739 L 569 738 L 570 737 L 570 736 L 571 735 L 571 734 L 572 733 L 572 732 L 574 730 L 574 729 L 589 714 L 590 714 L 594 710 L 595 710 L 598 707 L 599 707 L 604 702 L 605 702 L 611 696 L 612 696 L 635 673 L 635 672 L 647 660 L 647 659 L 655 651 L 655 650 L 661 644 L 661 643 L 666 638 L 666 637 L 669 634 L 669 633 L 672 630 L 672 629 L 675 626 L 675 625 L 676 624 L 676 623 L 678 621 L 678 620 L 680 618 L 680 617 L 682 615 L 682 614 L 684 612 L 684 611 L 685 610 L 685 609 L 686 608 L 686 607 L 687 606 L 687 605 L 688 604 L 688 603 L 690 601 L 690 599 L 692 597 L 692 595 L 693 594 L 693 593 L 694 592 L 694 591 L 695 590 L 695 589 L 696 588 L 696 586 L 697 585 L 697 583 L 698 582 L 698 580 L 699 579 L 699 576 L 700 575 L 700 569 L 701 568 L 701 562 L 700 561 L 700 554 L 699 554 L 699 555 L 698 556 L 698 558 L 697 559 L 697 562 L 696 563 L 696 565 L 695 566 L 695 568 L 694 569 L 694 571 L 693 572 L 693 574 L 692 575 L 692 577 L 691 578 L 691 579 L 690 580 L 690 581 L 689 582 L 689 584 L 687 586 L 687 587 L 686 588 L 686 589 L 685 590 L 685 591 L 684 592 L 684 593 L 681 596 L 681 597 L 678 600 L 678 601 L 674 605 L 674 606 L 662 618 L 661 618 L 657 622 L 656 622 L 654 624 L 653 624 L 651 626 L 650 626 L 649 627 L 648 627 L 647 628 L 646 628 L 645 629 L 643 629 L 642 630 L 641 630 L 640 631 L 637 631 L 636 632 L 634 632 L 633 633 L 629 633 L 628 634 L 624 634 L 623 635 L 615 635 L 614 636 L 607 636 L 606 635 L 599 635 L 598 634 L 594 634 L 593 633 L 592 633 L 591 632 L 590 632 L 589 631 L 587 631 L 585 629 L 584 629 L 583 628 L 582 628 L 581 627 L 580 627 L 579 626 L 578 626 L 577 625 L 576 625 L 574 623 L 573 623 L 572 622 L 571 622 L 569 620 L 568 620 L 567 619 L 566 619 L 563 616 L 562 616 L 560 614 L 559 614 L 557 612 L 556 612 L 554 610 L 553 610 L 550 607 L 549 607 L 545 603 L 544 603 L 540 599 L 539 599 L 535 595 L 534 595 L 529 590 L 528 590 L 521 583 L 520 583 L 512 575 L 511 575 L 499 563 L 498 563 L 495 560 L 495 559 L 494 558 L 493 558 L 488 553 L 488 552 L 471 535 L 471 534 L 465 528 L 465 527 L 459 521 L 459 520 L 454 515 L 454 514 L 451 511 L 451 510 L 449 508 L 449 507 L 447 505 L 447 504 L 444 501 L 444 500 L 443 499 L 443 498 L 441 496 L 441 495 L 440 494 L 440 493 L 438 491 L 438 490 L 437 489 L 437 488 L 435 486 L 435 485 L 434 484 L 434 483 L 433 482 L 433 481 L 432 480 L 432 479 L 431 478 L 431 477 L 430 476 L 430 475 L 429 474 L 429 472 L 428 471 L 428 469 L 427 468 L 427 465 L 426 464 L 426 461 L 425 460 L 425 456 L 424 455 L 424 448 L 423 447 L 423 412 L 424 411 L 424 405 L 425 404 L 425 401 L 426 400 L 426 397 L 427 396 L 427 393 L 428 392 L 428 390 L 429 389 L 429 387 L 430 386 L 430 384 L 431 383 L 431 381 L 432 380 L 432 378 L 433 377 L 433 375 L 434 374 L 434 372 L 435 371 L 435 370 L 436 369 L 436 368 L 437 367 L 437 365 L 438 364 L 438 363 L 439 362 L 439 360 L 440 359 L 440 358 L 441 357 L 441 356 L 442 355 L 442 354 L 443 353 L 443 352 L 444 351 L 444 350 L 445 349 L 445 348 L 447 346 L 447 345 L 448 344 L 448 343 L 449 342 L 449 341 L 450 340 L 450 339 L 451 338 L 451 337 L 452 336 L 452 335 L 453 334 L 454 334 L 456 336 L 457 336 L 460 339 L 461 339 L 464 342 L 465 342 L 470 347 L 471 347 L 475 351 L 476 351 L 480 355 L 481 355 L 488 362 L 489 362 L 503 376 L 503 377 L 509 383 L 509 384 L 514 389 L 514 390 L 518 394 L 518 395 L 521 398 L 521 399 L 524 402 L 524 403 L 526 405 L 526 406 L 528 408 L 528 409 L 530 411 L 530 412 L 532 414 L 532 415 L 533 416 L 533 417 L 536 420 L 536 421 L 539 424 L 539 425 L 541 427 L 541 428 L 543 430 L 543 432 L 544 433 L 544 434 L 545 435 L 545 436 L 546 437 L 546 452 L 545 453 L 545 455 L 544 456 L 544 458 L 543 459 L 543 460 L 542 461 L 542 462 L 540 464 L 540 465 L 538 467 L 538 468 L 524 482 L 523 482 L 521 484 L 520 484 L 518 486 L 517 486 L 515 488 L 514 488 L 512 490 L 511 490 L 510 491 L 509 491 L 508 492 L 507 492 L 505 494 L 504 494 L 503 495 L 502 495 L 501 496 L 500 496 L 499 497 L 498 497 L 497 498 L 496 498 L 495 499 L 494 499 L 493 500 L 492 500 L 491 501 L 490 501 L 489 502 L 488 502 L 487 503 L 485 503 L 484 504 L 483 504 L 482 505 L 481 505 L 480 506 L 479 506 L 478 507 L 477 507 L 476 508 L 475 508 L 474 509 L 472 509 L 472 510 L 478 510 L 479 509 L 486 509 L 487 508 L 492 508 L 493 507 L 497 507 L 498 506 L 503 506 L 504 505 L 507 505 L 508 504 L 510 504 L 511 503 L 514 503 L 515 502 L 517 502 L 518 501 L 521 501 L 522 500 L 524 500 L 525 499 L 526 499 L 527 498 L 529 498 L 530 497 L 531 497 L 532 496 L 533 496 L 534 495 L 535 495 L 536 494 L 537 494 L 538 493 L 539 493 L 540 492 L 541 492 L 543 490 L 544 490 L 548 486 L 549 486 L 562 473 L 562 472 L 566 468 L 566 467 L 570 463 L 570 462 L 572 460 L 572 459 L 573 458 L 573 457 L 575 455 L 575 454 L 576 453 L 576 452 L 577 451 L 577 450 L 578 449 L 578 448 L 580 446 L 580 445 L 581 444 L 581 442 L 582 441 L 582 440 L 583 439 L 583 438 L 584 437 L 584 435 L 585 434 L 585 432 L 586 431 L 586 430 L 587 429 L 587 427 L 588 426 L 588 424 L 589 423 L 589 421 L 590 420 L 590 418 L 592 416 L 593 417 L 593 513 L 594 514 L 594 524 L 593 525 L 593 526 L 586 533 L 585 533 L 561 557 L 561 558 L 540 579 L 540 580 L 534 586 L 534 587 L 535 587 L 536 588 L 546 588 L 547 589 L 552 589 L 553 590 L 555 590 L 556 591 L 558 591 L 559 592 L 560 592 L 561 593 L 562 593 L 563 594 L 564 594 L 565 595 L 566 595 L 567 596 L 568 596 L 571 599 L 572 599 L 575 602 L 576 602 L 587 613 L 587 614 L 590 617 L 590 618 L 593 621 L 593 622 L 595 624 L 595 625 L 597 627 L 597 628 L 598 628 L 598 627 L 632 593 L 633 593 L 640 586 L 641 586 L 659 568 L 659 567 L 661 565 L 661 564 L 662 563 L 662 562 L 663 561 L 663 553 L 662 552 L 662 551 L 660 549 L 660 548 L 651 539 L 650 539 L 646 535 L 645 535 L 643 533 L 642 533 L 640 531 L 639 531 L 638 530 L 637 530 L 635 528 L 634 528 L 633 527 L 632 527 L 631 526 L 630 526 L 628 524 L 627 524 L 626 523 L 624 523 L 623 522 L 622 522 L 621 521 L 620 521 L 619 520 L 618 520 L 617 519 L 615 519 L 614 518 L 612 518 L 611 517 L 609 517 L 608 516 L 605 516 L 604 515 L 604 260 L 605 259 L 606 259 L 609 262 L 610 262 L 612 264 L 613 264 L 615 266 L 616 266 L 617 267 L 618 267 L 620 269 L 621 269 L 622 270 L 623 270 L 624 271 L 625 271 L 626 272 L 627 272 L 628 273 L 629 273 L 630 274 L 632 274 L 633 275 L 634 275 L 635 276 L 637 276 L 638 277 L 639 277 L 640 278 L 641 278 L 642 279 L 643 279 L 644 280 L 645 280 L 646 281 L 647 281 L 648 282 L 649 282 L 650 283 L 651 283 L 652 284 L 653 284 L 654 285 L 655 285 L 657 287 L 658 287 L 660 289 L 661 289 L 662 290 L 663 290 L 665 292 L 666 292 L 669 295 L 670 295 L 673 298 L 674 298 L 682 306 L 683 306 L 689 312 L 689 313 L 696 320 L 696 321 L 698 323 L 698 324 L 699 325 L 699 326 L 700 327 L 700 328 L 701 329 L 701 331 L 702 332 L 702 346 L 701 347 L 701 350 L 700 351 L 700 353 L 699 354 L 699 355 L 698 356 L 698 357 L 697 358 L 697 360 L 695 362 L 695 363 L 694 364 L 694 365 L 692 367 L 692 368 L 689 371 L 689 372 L 674 387 L 673 387 L 673 388 L 674 388 L 675 387 L 677 387 L 678 386 L 680 386 L 681 385 L 683 385 L 684 384 L 686 384 L 687 383 L 689 383 L 690 382 L 691 382 L 692 381 L 694 381 L 695 380 L 697 380 L 698 379 L 700 379 L 701 378 L 702 378 L 703 377 L 704 377 L 705 376 L 706 376 L 708 374 L 709 374 L 711 372 L 712 372 L 713 371 L 714 371 L 717 368 L 717 367 L 719 365 L 719 364 L 720 363 L 720 362 L 721 361 L 721 360 L 722 359 L 722 358 L 723 357 L 723 356 L 724 355 L 724 353 L 725 352 L 725 351 L 726 350 L 726 348 L 727 347 L 727 346 L 728 345 L 728 343 L 729 342 L 729 340 L 730 339 L 730 337 L 731 336 L 731 335 L 732 334 L 732 331 L 733 330 L 733 328 L 734 327 L 734 325 L 735 324 L 735 321 L 736 320 L 736 318 L 737 317 L 737 315 L 738 314 L 738 311 L 739 310 L 739 307 L 740 306 L 740 303 L 741 302 L 741 299 L 742 298 L 742 295 L 743 294 L 743 291 L 744 290 L 744 288 L 745 287 L 745 285 L 746 284 L 746 281 L 747 280 L 747 270 L 746 269 L 746 265 L 745 264 L 745 262 L 744 261 L 744 259 L 743 258 L 743 257 L 742 256 L 742 255 L 740 253 L 740 252 L 737 249 L 737 248 L 721 232 L 720 232 L 717 229 L 716 229 L 714 227 L 713 227 L 711 225 L 710 225 L 708 223 L 707 223 L 706 222 L 705 222 L 703 220 L 702 220 L 701 219 L 700 219 L 698 217 L 697 217 L 696 216 L 695 216 L 693 214 L 692 214 L 691 213 L 690 213 L 688 211 L 687 211 L 686 210 L 685 210 L 684 209 L 683 209 L 681 207 L 680 207 L 678 205 L 677 205 L 676 204 L 675 204 L 673 202 L 672 202 L 671 201 L 670 201 L 668 199 L 667 199 L 666 198 L 665 198 L 663 196 L 662 196 L 660 194 L 659 194 L 658 193 L 657 193 L 655 191 L 654 191 L 652 189 L 651 189 L 649 187 L 648 187 L 647 186 L 646 186 L 642 182 L 641 182 L 639 180 L 638 180 L 635 177 L 634 177 L 632 175 L 631 175 L 627 171 L 626 171 L 615 160 L 615 159 L 613 157 L 613 156 L 611 154 L 611 153 L 610 152 L 610 151 L 609 151 L 608 152 L 608 154 L 607 155 L 607 158 L 606 159 L 606 160 L 605 161 L 605 162 L 604 163 L 603 162 L 603 160 L 604 159 L 604 156 L 605 155 L 605 151 L 606 150 L 606 148 L 607 147 L 607 145 L 608 144 L 608 142 L 609 141 L 609 139 L 610 138 L 610 136 L 611 135 L 611 133 L 612 132 L 612 130 L 613 129 L 613 128 L 614 127 L 614 126 L 615 125 L 615 124 L 616 123 L 616 122 L 617 121 L 617 120 L 618 119 L 618 118 L 619 117 L 619 116 L 620 115 L 620 114 L 622 112 L 622 111 L 624 109 L 624 108 L 625 107 L 625 106 L 627 104 L 627 103 L 629 101 L 629 100 L 633 96 L 633 95 L 648 80 L 649 80 L 650 79 L 651 79 L 653 77 L 654 77 L 655 76 L 656 76 L 657 75 L 658 75 L 659 74 L 661 74 L 662 73 L 664 73 L 665 72 L 668 72 L 669 71 L 683 71 L 684 72 L 686 72 L 687 71 L 687 67 L 688 66 L 688 64 L 687 63 L 687 51 L 686 50 L 686 17 L 687 16 L 687 6 L 688 5 Z" fill="#000000" fill-rule="evenodd" clip-rule="evenodd"/>
  </g>
</svg>
